<?xml version="1.0" encoding="iso-8859-1"?>
<!-- Generator: Adobe Illustrator 19.0.0, SVG Export Plug-In . SVG Version: 6.00 Build 0)  -->
<svg version="1.1" id="Layer_1" xmlns="http://www.w3.org/2000/svg" xmlns:xlink="http://www.w3.org/1999/xlink" x="0px" y="0px"
	 viewBox="0 0 512 512" style="enable-background:new 0 0 512 512;" xml:space="preserve">
<g>
	<g>
		<path d="M316.08,246.697h-10.411c-3.815-20.422-19.944-36.55-40.366-40.366v-10.41c0-5.135-4.162-9.298-9.298-9.298
			c-5.136,0-9.298,4.163-9.298,9.298v10.41c-20.422,3.816-36.552,19.944-40.366,40.366H195.93c-5.136,0-9.298,4.163-9.298,9.298
			s4.162,9.298,9.298,9.298h10.411c3.816,20.422,19.944,36.552,40.366,40.367v10.41c0,5.135,4.162,9.298,9.298,9.298
			c5.136,0,9.298-4.163,9.298-9.298v-10.41c20.422-3.816,36.552-19.944,40.366-40.367h10.411c5.136,0,9.298-4.163,9.298-9.298
			C325.378,250.86,321.216,246.697,316.08,246.697z M246.707,286.551c-10.147-3.093-18.165-11.11-21.259-21.259h21.259V286.551z
			 M246.707,246.697h-21.259c3.093-10.147,11.112-18.164,21.259-21.258V246.697z M265.303,286.553v-21.259h21.259
			C283.467,275.441,275.45,283.458,265.303,286.553z M265.303,246.697v-21.258c10.147,3.094,18.164,11.112,21.259,21.258H265.303z"
			/>
	</g>
</g>
<g>
	<g>
		<path d="M67.779,183.218c-3.534-3.728-9.418-3.885-13.146-0.355c-1.853,1.755-3.706,3.555-5.504,5.349
			c-3.636,3.626-3.644,9.512-0.02,13.148c1.817,1.821,4.201,2.734,6.585,2.734c2.375,0,4.751-0.904,6.565-2.714
			c1.686-1.682,3.424-3.371,5.163-5.018C71.151,192.832,71.311,186.947,67.779,183.218z"/>
	</g>
</g>
<g>
	<g>
		<path d="M178.191,122.599c-1.563-4.892-6.794-7.591-11.687-6.027c-4.692,1.499-9.411,3.14-14.021,4.878
			c-4.805,1.811-7.232,7.174-5.422,11.979c1.405,3.727,4.943,6.021,8.703,6.021c1.09,0,2.198-0.193,3.278-0.6
			c4.315-1.626,8.73-3.162,13.122-4.565C177.054,132.723,179.753,127.49,178.191,122.599z"/>
	</g>
</g>
<g>
	<g>
		<path d="M359.477,121.432c-4.612-1.737-9.329-3.378-14.025-4.876c-4.887-1.562-10.122,1.138-11.684,6.03
			c-1.562,4.891,1.137,10.122,6.03,11.684c4.392,1.402,8.807,2.937,13.124,4.563c1.08,0.407,2.187,0.599,3.277,0.599
			c3.759,0,7.299-2.297,8.703-6.023C366.711,128.605,364.284,123.242,359.477,121.432z"/>
	</g>
</g>
<g>
	<g>
		<path d="M119.558,146.651c-2.62-4.416-8.321-5.87-12.741-3.25c-4.236,2.514-8.465,5.172-12.571,7.899
			c-4.276,2.841-5.44,8.613-2.597,12.889c1.789,2.696,4.742,4.154,7.752,4.154c1.768,0,3.555-0.503,5.139-1.555
			c3.843-2.554,7.803-5.042,11.769-7.396C120.724,156.772,122.178,151.067,119.558,146.651z"/>
	</g>
</g>
<g>
	<g>
		<path d="M417.711,151.264c-4.103-2.725-8.332-5.382-12.567-7.893c-4.415-2.618-10.121-1.163-12.739,3.254
			c-2.62,4.416-1.163,10.12,3.253,12.739c3.965,2.352,7.923,4.839,11.765,7.39c1.582,1.051,3.368,1.553,5.136,1.553
			c3.01,0,5.964-1.459,7.753-4.154C423.154,159.877,421.99,154.106,417.711,151.264z"/>
	</g>
</g>
<g>
	<g>
		<path d="M296.034,105.413c-4.872-0.662-9.836-1.21-14.751-1.628c-5.1-0.434-9.616,3.361-10.05,8.477
			c-0.435,5.117,3.36,9.618,8.476,10.053c4.608,0.392,9.258,0.904,13.822,1.525c0.425,0.058,0.847,0.086,1.265,0.086
			c4.578,0,8.568-3.383,9.201-8.047C304.687,110.79,301.123,106.104,296.034,105.413z"/>
	</g>
</g>
<g>
	<g>
		<path d="M240.713,112.267c-0.436-5.117-4.938-8.915-10.053-8.475c-4.912,0.418-9.872,0.967-14.743,1.629
			c-5.088,0.692-8.652,5.378-7.96,10.467c0.634,4.661,4.622,8.044,9.2,8.044c0.418,0,0.841-0.029,1.266-0.086
			c4.565-0.621,9.212-1.134,13.815-1.526C237.355,121.885,241.15,117.384,240.713,112.267z"/>
	</g>
</g>
<g>
	<g>
		<path d="M462.879,188.2c-1.815-1.809-3.668-3.609-5.507-5.348c-3.729-3.529-9.615-3.368-13.145,0.362
			c-3.529,3.729-3.368,9.614,0.362,13.145c1.726,1.629,3.462,3.317,5.167,5.015c1.815,1.807,4.188,2.711,6.562,2.711
			c2.385,0,4.77-0.912,6.587-2.736C466.529,197.711,466.518,191.824,462.879,188.2z"/>
	</g>
</g>
<g>
	<g>
		<path d="M484.931,249.422l-41.281-41.28c-50.123-50.121-116.763-77.726-187.645-77.726S118.482,158.018,68.36,208.141
			l-41.281,41.281c-1.743,1.743-2.722,4.108-2.722,6.574s0.979,4.831,2.722,6.574l41.281,41.28
			c50.123,50.121,116.763,77.726,187.645,77.726s137.523-27.603,187.645-77.725l41.281-41.281c1.743-1.743,2.722-4.108,2.722-6.574
			C487.653,253.531,486.674,251.165,484.931,249.422z M430.5,290.701c-46.609,46.611-108.58,72.279-174.495,72.279
			S128.119,337.31,81.51,290.701l-34.707-34.706l34.707-34.706c46.609-46.609,108.58-72.279,174.495-72.279
			S383.891,174.68,430.5,221.289l34.707,34.706L430.5,290.701z"/>
	</g>
</g>
<g>
	<g>
		<path d="M256.005,161.499c-52.105,0-94.497,42.391-94.497,94.497c0,52.106,42.391,94.497,94.497,94.497
			c52.106,0,94.497-42.391,94.497-94.497C350.502,203.89,308.11,161.499,256.005,161.499z M256.005,331.896
			c-41.853,0-75.901-34.049-75.901-75.901c0-41.851,34.049-75.901,75.901-75.901s75.901,34.049,75.901,75.901
			S297.858,331.896,256.005,331.896z"/>
	</g>
</g>
<g>
	<g>
		<path d="M502.702,0H433.44c-5.136,0-9.298,4.163-9.298,9.298c0,5.135,4.162,9.298,9.298,9.298h59.965v59.977
			c0,5.135,4.162,9.298,9.298,9.298S512,83.708,512,78.573V9.298C512,4.163,507.838,0,502.702,0z"/>
	</g>
</g>
<g>
	<g>
		<path d="M78.573,0H9.298C4.162,0,0,4.163,0,9.298v69.275c0,5.135,4.162,9.298,9.298,9.298c5.136,0,9.298-4.163,9.298-9.298V18.596
			h59.977c5.136,0,9.298-4.163,9.298-9.298C87.871,4.163,83.708,0,78.573,0z"/>
	</g>
</g>
<g>
	<g>
		<path d="M78.573,493.404H18.596v-59.977c0-5.135-4.162-9.298-9.298-9.298c-5.136,0-9.298,4.163-9.298,9.298v69.275
			C0,507.837,4.162,512,9.298,512h69.275c5.136,0,9.298-4.163,9.298-9.298S83.708,493.404,78.573,493.404z"/>
	</g>
</g>
<g>
	<g>
		<path d="M502.702,424.129c-5.136,0-9.298,4.163-9.298,9.298v59.977H433.44c-5.136,0-9.298,4.163-9.298,9.298
			S428.304,512,433.44,512h69.263c5.136,0,9.298-4.163,9.298-9.298v-69.275C512,428.292,507.838,424.129,502.702,424.129z"/>
	</g>
</g>
<g>
</g>
<g>
</g>
<g>
</g>
<g>
</g>
<g>
</g>
<g>
</g>
<g>
</g>
<g>
</g>
<g>
</g>
<g>
</g>
<g>
</g>
<g>
</g>
<g>
</g>
<g>
</g>
<g>
</g>
</svg>
